<svg xmlns="http://www.w3.org/2000/svg" xmlns:xlink="http://www.w3.org/1999/xlink" width="223" zoomAndPan="magnify" viewBox="0 0 167.25 173.249997" height="231" preserveAspectRatio="xMidYMid meet" version="1.0"><defs><g/><clipPath id="8e8dd2c2f8"><path d="M 0 0.0117188 L 80.867188 0.0117188 L 80.867188 84.335938 L 0 84.335938 Z M 0 0.0117188 " clip-rule="nonzero"/></clipPath><clipPath id="54dc7166e4"><path d="M 0 0.0117188 L 80.867188 0.0117188 L 80.867188 84.335938 L 0 84.335938 Z M 0 0.0117188 " clip-rule="nonzero"/></clipPath><clipPath id="ee427259fd"><rect x="0" width="81" y="0" height="85"/></clipPath><clipPath id="c165c67b69"><path d="M 0 0.0117188 L 80.636719 0.0117188 L 80.636719 84.328125 L 0 84.328125 Z M 0 0.0117188 " clip-rule="nonzero"/></clipPath><clipPath id="e06eed9f62"><path d="M 84.9375 0.0117188 L 165.804688 0.0117188 L 165.804688 84.335938 L 84.9375 84.335938 Z M 84.9375 0.0117188 " clip-rule="nonzero"/></clipPath><clipPath id="cadec96c68"><path d="M 0.9375 0.0117188 L 81.804688 0.0117188 L 81.804688 84.335938 L 0.9375 84.335938 Z M 0.9375 0.0117188 " clip-rule="nonzero"/></clipPath><clipPath id="12d54be738"><rect x="0" width="82" y="0" height="85"/></clipPath><clipPath id="0e7cb5411f"><path d="M 84.9375 0.0117188 L 165.574219 0.0117188 L 165.574219 84.328125 L 84.9375 84.328125 Z M 84.9375 0.0117188 " clip-rule="nonzero"/></clipPath><clipPath id="a05dad6f77"><path d="M 0 88.089844 L 80.636719 88.089844 L 80.636719 172.402344 L 0 172.402344 Z M 0 88.089844 " clip-rule="nonzero"/></clipPath><clipPath id="18765bc6d1"><path d="M 84.9375 88.089844 L 165.804688 88.089844 L 165.804688 172.410156 L 84.9375 172.410156 Z M 84.9375 88.089844 " clip-rule="nonzero"/></clipPath><clipPath id="dfc609c0a0"><path d="M 0.9375 0.0898438 L 81.804688 0.0898438 L 81.804688 84.410156 L 0.9375 84.410156 Z M 0.9375 0.0898438 " clip-rule="nonzero"/></clipPath><clipPath id="33282d5d46"><rect x="0" width="82" y="0" height="85"/></clipPath><clipPath id="794f761b09"><path d="M 84.9375 88.089844 L 165.574219 88.089844 L 165.574219 172.402344 L 84.9375 172.402344 Z M 84.9375 88.089844 " clip-rule="nonzero"/></clipPath></defs><g clip-path="url(#8e8dd2c2f8)"><g transform="matrix(1, 0, 0, 1, 0, 0.000000000000003917)"><g clip-path="url(#ee427259fd)"><g clip-path="url(#54dc7166e4)"><path fill="#59a21f" d="M 0 0.0117188 L 80.867188 0.0117188 L 80.867188 84.355469 L 0 84.355469 Z M 0 0.0117188 " fill-opacity="1" fill-rule="nonzero"/></g></g></g></g><g clip-path="url(#c165c67b69)"><path stroke-linecap="butt" transform="matrix(0.746652, 0, 0, 0.746652, 0.000347081, 0.0133914)" fill="none" stroke-linejoin="miter" d="M -0.00046485 -0.00224014 L 108.295504 -0.00224014 L 108.295504 112.923774 L -0.00046485 112.923774 Z M -0.00046485 -0.00224014 " stroke="#59a21f" stroke-width="8" stroke-opacity="1" stroke-miterlimit="4"/></g><g fill="#ffffff" fill-opacity="1"><g transform="translate(11.479771, 59.745532)"><g><path d="M 56.78125 -34.828125 L 45.390625 0 L 36.734375 0 L 29.0625 -23.59375 L 21.15625 0 L 12.546875 0 L 1.09375 -34.828125 L 9.453125 -34.828125 L 17.3125 -10.34375 L 25.53125 -34.828125 L 33 -34.828125 L 40.953125 -10.15625 L 49.0625 -34.828125 Z M 56.78125 -34.828125 "/></g></g></g><g clip-path="url(#e06eed9f62)"><g transform="matrix(1, 0, 0, 1, 84, 0.000000000000003917)"><g clip-path="url(#12d54be738)"><g clip-path="url(#cadec96c68)"><path fill="#cdac24" d="M 0.9375 0.0117188 L 81.804688 0.0117188 L 81.804688 84.355469 L 0.9375 84.355469 Z M 0.9375 0.0117188 " fill-opacity="1" fill-rule="nonzero"/></g></g></g></g><g clip-path="url(#0e7cb5411f)"><path stroke-linecap="butt" transform="matrix(0.746652, 0, 0, 0.746652, 84.936399, 0.0133914)" fill="none" stroke-linejoin="miter" d="M 0.00147467 -0.00224014 L 108.297443 -0.00224014 L 108.297443 112.923774 L 0.00147467 112.923774 Z M 0.00147467 -0.00224014 " stroke="#cdac24" stroke-width="8" stroke-opacity="1" stroke-miterlimit="4"/></g><g fill="#ffffff" fill-opacity="1"><g transform="translate(104.36066, 59.745532)"><g><path d="M 21 0.59375 C 17.382812 0.59375 14.125 -0.179688 11.21875 -1.734375 C 8.320312 -3.296875 6.050781 -5.445312 4.40625 -8.1875 C 2.757812 -10.925781 1.9375 -14.003906 1.9375 -17.421875 C 1.9375 -20.835938 2.757812 -23.910156 4.40625 -26.640625 C 6.050781 -29.378906 8.320312 -31.53125 11.21875 -33.09375 C 14.125 -34.65625 17.382812 -35.4375 21 -35.4375 C 24.613281 -35.4375 27.863281 -34.65625 30.75 -33.09375 C 33.632812 -31.53125 35.90625 -29.378906 37.5625 -26.640625 C 39.226562 -23.910156 40.0625 -20.835938 40.0625 -17.421875 C 40.0625 -14.003906 39.226562 -10.925781 37.5625 -8.1875 C 35.90625 -5.445312 33.632812 -3.296875 30.75 -1.734375 C 27.863281 -0.179688 24.613281 0.59375 21 0.59375 Z M 21 -6.265625 C 23.0625 -6.265625 24.921875 -6.738281 26.578125 -7.6875 C 28.234375 -8.632812 29.535156 -9.953125 30.484375 -11.640625 C 31.429688 -13.335938 31.90625 -15.265625 31.90625 -17.421875 C 31.90625 -19.578125 31.429688 -21.5 30.484375 -23.1875 C 29.535156 -24.882812 28.234375 -26.203125 26.578125 -27.140625 C 24.921875 -28.085938 23.0625 -28.5625 21 -28.5625 C 18.945312 -28.5625 17.085938 -28.085938 15.421875 -27.140625 C 13.765625 -26.203125 12.460938 -24.882812 11.515625 -23.1875 C 10.578125 -21.5 10.109375 -19.578125 10.109375 -17.421875 C 10.109375 -15.265625 10.578125 -13.335938 11.515625 -11.640625 C 12.460938 -9.953125 13.765625 -8.632812 15.421875 -7.6875 C 17.085938 -6.738281 18.945312 -6.265625 21 -6.265625 Z M 21 -6.265625 "/></g></g></g><g clip-path="url(#a05dad6f77)"><path stroke-linecap="butt" transform="matrix(0.746652, 0, 0, 0.746652, 0.000347081, 88.088074)" fill="none" stroke-linejoin="miter" d="M -0.00046485 0.00237033 L 108.295504 0.00237033 L 108.295504 112.923152 L -0.00046485 112.923152 Z M -0.00046485 0.00237033 " stroke="#000000" stroke-width="8" stroke-opacity="1" stroke-miterlimit="4"/></g><g fill="#000000" fill-opacity="1"><g transform="translate(22.131225, 147.820214)"><g><path d="M 26.328125 0 L 19.609375 -9.703125 L 12.1875 -9.703125 L 12.1875 0 L 4.125 0 L 4.125 -34.828125 L 19.203125 -34.828125 C 22.296875 -34.828125 24.976562 -34.3125 27.25 -33.28125 C 29.519531 -32.257812 31.269531 -30.800781 32.5 -28.90625 C 33.726562 -27.019531 34.34375 -24.785156 34.34375 -22.203125 C 34.34375 -19.609375 33.71875 -17.375 32.46875 -15.5 C 31.226562 -13.625 29.460938 -12.191406 27.171875 -11.203125 L 34.984375 0 Z M 26.171875 -22.203125 C 26.171875 -24.148438 25.539062 -25.644531 24.28125 -26.6875 C 23.019531 -27.738281 21.179688 -28.265625 18.765625 -28.265625 L 12.1875 -28.265625 L 12.1875 -16.125 L 18.765625 -16.125 C 21.179688 -16.125 23.019531 -16.65625 24.28125 -17.71875 C 25.539062 -18.78125 26.171875 -20.273438 26.171875 -22.203125 Z M 26.171875 -22.203125 "/></g></g></g><g clip-path="url(#18765bc6d1)"><g transform="matrix(1, 0, 0, 1, 84, 88)"><g clip-path="url(#33282d5d46)"><g clip-path="url(#dfc609c0a0)"><path fill="#a6a6a6" d="M 0.9375 0.0898438 L 81.804688 0.0898438 L 81.804688 84.429688 L 0.9375 84.429688 Z M 0.9375 0.0898438 " fill-opacity="1" fill-rule="nonzero"/></g></g></g></g><g clip-path="url(#794f761b09)"><path stroke-linecap="butt" transform="matrix(0.746652, 0, 0, 0.746652, 84.936399, 88.088074)" fill="none" stroke-linejoin="miter" d="M 0.00147467 0.00237033 L 108.297443 0.00237033 L 108.297443 112.923152 L 0.00147467 112.923152 Z M 0.00147467 0.00237033 " stroke="#a6a6a6" stroke-width="8" stroke-opacity="1" stroke-miterlimit="4"/></g><g fill="#ffffff" fill-opacity="1"><g transform="translate(104.803984, 147.820214)"><g><path d="M 4.125 -34.828125 L 19.953125 -34.828125 C 23.734375 -34.828125 27.078125 -34.101562 29.984375 -32.65625 C 32.890625 -31.21875 35.144531 -29.1875 36.75 -26.5625 C 38.363281 -23.945312 39.171875 -20.898438 39.171875 -17.421875 C 39.171875 -13.929688 38.363281 -10.875 36.75 -8.25 C 35.144531 -5.632812 32.890625 -3.601562 29.984375 -2.15625 C 27.078125 -0.71875 23.734375 0 19.953125 0 L 4.125 0 Z M 19.5625 -6.625 C 23.039062 -6.625 25.816406 -7.59375 27.890625 -9.53125 C 29.960938 -11.46875 31 -14.097656 31 -17.421875 C 31 -20.734375 29.960938 -23.359375 27.890625 -25.296875 C 25.816406 -27.242188 23.039062 -28.21875 19.5625 -28.21875 L 12.1875 -28.21875 L 12.1875 -6.625 Z M 19.5625 -6.625 "/></g></g></g></svg>