<svg xmlns="http://www.w3.org/2000/svg" xmlns:xlink="http://www.w3.org/1999/xlink" width="460" zoomAndPan="magnify" viewBox="0 0 345 111.749996" height="149" preserveAspectRatio="xMidYMid meet" version="1.0"><defs><g/><clipPath id="1708e9c62f"><path d="M 260.613281 58.546875 L 281 58.546875 L 281 79.460938 L 260.613281 79.460938 Z M 260.613281 58.546875 " clip-rule="nonzero"/></clipPath><clipPath id="2195cfd499"><path d="M 0.613281 0.546875 L 21 0.546875 L 21 21.460938 L 0.613281 21.460938 Z M 0.613281 0.546875 " clip-rule="nonzero"/></clipPath><clipPath id="530070a0c8"><rect x="0" width="21" y="0" height="22"/></clipPath><clipPath id="62758b921a"><path d="M 287.734375 58.546875 L 308.121094 58.546875 L 308.121094 79.460938 L 287.734375 79.460938 Z M 287.734375 58.546875 " clip-rule="nonzero"/></clipPath><clipPath id="b7e1643848"><path d="M 0.734375 0.546875 L 21.121094 0.546875 L 21.121094 21.460938 L 0.734375 21.460938 Z M 0.734375 0.546875 " clip-rule="nonzero"/></clipPath><clipPath id="6489e35b6f"><rect x="0" width="22" y="0" height="22"/></clipPath><clipPath id="55fb8e162b"><path d="M 314.855469 58.546875 L 335.242188 58.546875 L 335.242188 79.460938 L 314.855469 79.460938 Z M 314.855469 58.546875 " clip-rule="nonzero"/></clipPath><clipPath id="7f77ead623"><path d="M 0.855469 0.546875 L 21.242188 0.546875 L 21.242188 21.460938 L 0.855469 21.460938 Z M 0.855469 0.546875 " clip-rule="nonzero"/></clipPath><clipPath id="2f5935571c"><rect x="0" width="22" y="0" height="22"/></clipPath></defs><g fill="currentColor" fill-opacity="1"><g transform="translate(261.359828, 44.934704)"><g><path d="M 17.921875 -7.984375 C 17.921875 -7.929688 17.890625 -7.515625 17.828125 -6.734375 L 5.65625 -6.734375 C 5.875 -5.734375 6.390625 -4.941406 7.203125 -4.359375 C 8.023438 -3.785156 9.046875 -3.5 10.265625 -3.5 C 11.097656 -3.5 11.835938 -3.625 12.484375 -3.875 C 13.140625 -4.125 13.742188 -4.519531 14.296875 -5.0625 L 16.78125 -2.359375 C 15.269531 -0.628906 13.054688 0.234375 10.140625 0.234375 C 8.328125 0.234375 6.722656 -0.117188 5.328125 -0.828125 C 3.929688 -1.535156 2.851562 -2.515625 2.09375 -3.765625 C 1.332031 -5.023438 0.953125 -6.453125 0.953125 -8.046875 C 0.953125 -9.617188 1.328125 -11.039062 2.078125 -12.3125 C 2.828125 -13.582031 3.851562 -14.570312 5.15625 -15.28125 C 6.46875 -15.988281 7.929688 -16.34375 9.546875 -16.34375 C 11.117188 -16.34375 12.539062 -16 13.8125 -15.3125 C 15.09375 -14.632812 16.097656 -13.660156 16.828125 -12.390625 C 17.554688 -11.128906 17.921875 -9.660156 17.921875 -7.984375 Z M 9.578125 -12.8125 C 8.515625 -12.8125 7.625 -12.507812 6.90625 -11.90625 C 6.1875 -11.3125 5.75 -10.492188 5.59375 -9.453125 L 13.53125 -9.453125 C 13.363281 -10.472656 12.921875 -11.285156 12.203125 -11.890625 C 11.484375 -12.503906 10.609375 -12.8125 9.578125 -12.8125 Z M 9.578125 -12.8125 "/></g></g></g><g fill="currentColor" fill-opacity="1"><g transform="translate(318.714822, 44.934704)"><g><path d="M 12.53125 -0.78125 C 12.070312 -0.4375 11.507812 -0.179688 10.84375 -0.015625 C 10.175781 0.148438 9.472656 0.234375 8.734375 0.234375 C 6.816406 0.234375 5.332031 -0.25 4.28125 -1.21875 C 3.238281 -2.195312 2.71875 -3.632812 2.71875 -5.53125 L 2.71875 -12.140625 L 0.234375 -12.140625 L 0.234375 -15.734375 L 2.71875 -15.734375 L 2.71875 -19.65625 L 7.390625 -19.65625 L 7.390625 -15.734375 L 11.40625 -15.734375 L 11.40625 -12.140625 L 7.390625 -12.140625 L 7.390625 -5.59375 C 7.390625 -4.914062 7.5625 -4.390625 7.90625 -4.015625 C 8.257812 -3.648438 8.753906 -3.46875 9.390625 -3.46875 C 10.128906 -3.46875 10.757812 -3.664062 11.28125 -4.0625 Z M 12.53125 -0.78125 "/></g></g></g><g clip-path="url(#1708e9c62f)"><g transform="matrix(1, 0, 0, 1, 260, 58)"><g clip-path="url(#530070a0c8)"><g clip-path="url(#2195cfd499)"><path fill="#59a21f" d="M 0.613281 0.546875 L 21 0.546875 L 21 21.492188 L 0.613281 21.492188 Z M 0.613281 0.546875 " fill-opacity="1" fill-rule="nonzero"/></g></g></g></g><g clip-path="url(#62758b921a)"><g transform="matrix(1, 0, 0, 1, 287, 58)"><g clip-path="url(#6489e35b6f)"><g clip-path="url(#b7e1643848)"><path fill="#cdac24" d="M 0.734375 0.546875 L 21.121094 0.546875 L 21.121094 21.492188 L 0.734375 21.492188 Z M 0.734375 0.546875 " fill-opacity="1" fill-rule="nonzero"/></g></g></g></g><g clip-path="url(#55fb8e162b)"><g transform="matrix(1, 0, 0, 1, 314, 58)"><g clip-path="url(#2f5935571c)"><g clip-path="url(#7f77ead623)"><path fill="#a6a6a6" d="M 0.855469 0.546875 L 21.242188 0.546875 L 21.242188 21.492188 L 0.855469 21.492188 Z M 0.855469 0.546875 " fill-opacity="1" fill-rule="nonzero"/></g></g></g></g><g fill="currentColor" fill-opacity="1"><g transform="translate(4.03314, 79.322537)"><g><path d="M 79.6875 -48.890625 L 63.703125 0 L 51.546875 0 L 40.78125 -33.109375 L 29.6875 0 L 17.59375 0 L 1.53125 -48.890625 L 13.265625 -48.890625 L 24.3125 -14.53125 L 35.828125 -48.890625 L 46.3125 -48.890625 L 57.484375 -14.25 L 68.859375 -48.890625 Z M 79.6875 -48.890625 "/></g></g></g><g fill="currentColor" fill-opacity="1"><g transform="translate(85.25698, 79.322537)"><g><path d="M 29.46875 0.84375 C 24.394531 0.84375 19.820312 -0.25 15.75 -2.4375 C 11.675781 -4.632812 8.484375 -7.648438 6.171875 -11.484375 C 3.867188 -15.328125 2.71875 -19.648438 2.71875 -24.453125 C 2.71875 -29.242188 3.867188 -33.554688 6.171875 -37.390625 C 8.484375 -41.234375 11.675781 -44.25 15.75 -46.4375 C 19.820312 -48.632812 24.394531 -49.734375 29.46875 -49.734375 C 34.550781 -49.734375 39.113281 -48.632812 43.15625 -46.4375 C 47.207031 -44.25 50.394531 -41.234375 52.71875 -37.390625 C 55.050781 -33.554688 56.21875 -29.242188 56.21875 -24.453125 C 56.21875 -19.648438 55.050781 -15.328125 52.71875 -11.484375 C 50.394531 -7.648438 47.207031 -4.632812 43.15625 -2.4375 C 39.113281 -0.25 34.550781 0.84375 29.46875 0.84375 Z M 29.46875 -8.796875 C 32.351562 -8.796875 34.957031 -9.457031 37.28125 -10.78125 C 39.613281 -12.113281 41.441406 -13.96875 42.765625 -16.34375 C 44.097656 -18.71875 44.765625 -21.421875 44.765625 -24.453125 C 44.765625 -27.472656 44.097656 -30.171875 42.765625 -32.546875 C 41.441406 -34.921875 39.613281 -36.769531 37.28125 -38.09375 C 34.957031 -39.425781 32.351562 -40.09375 29.46875 -40.09375 C 26.582031 -40.09375 23.972656 -39.425781 21.640625 -38.09375 C 19.316406 -36.769531 17.488281 -34.921875 16.15625 -32.546875 C 14.832031 -30.171875 14.171875 -27.472656 14.171875 -24.453125 C 14.171875 -21.421875 14.832031 -18.71875 16.15625 -16.34375 C 17.488281 -13.96875 19.316406 -12.113281 21.640625 -10.78125 C 23.972656 -9.457031 26.582031 -8.796875 29.46875 -8.796875 Z M 29.46875 -8.796875 "/></g></g></g><g fill="currentColor" fill-opacity="1"><g transform="translate(144.201879, 79.322537)"><g><path d="M 36.953125 0 L 27.515625 -13.625 L 17.109375 -13.625 L 17.109375 0 L 5.796875 0 L 5.796875 -48.890625 L 26.953125 -48.890625 C 31.285156 -48.890625 35.046875 -48.164062 38.234375 -46.71875 C 41.429688 -45.28125 43.890625 -43.234375 45.609375 -40.578125 C 47.328125 -37.921875 48.1875 -34.78125 48.1875 -31.15625 C 48.1875 -27.519531 47.3125 -24.382812 45.5625 -21.75 C 43.820312 -19.125 41.347656 -17.113281 38.140625 -15.71875 L 49.09375 0 Z M 36.734375 -31.15625 C 36.734375 -33.894531 35.847656 -36 34.078125 -37.46875 C 32.316406 -38.9375 29.734375 -39.671875 26.328125 -39.671875 L 17.109375 -39.671875 L 17.109375 -22.625 L 26.328125 -22.625 C 29.734375 -22.625 32.316406 -23.367188 34.078125 -24.859375 C 35.847656 -26.347656 36.734375 -28.445312 36.734375 -31.15625 Z M 36.734375 -31.15625 "/></g></g></g><g fill="currentColor" fill-opacity="1"><g transform="translate(195.534226, 79.322537)"><g><path d="M 5.796875 -48.890625 L 28 -48.890625 C 33.3125 -48.890625 38.003906 -47.875 42.078125 -45.84375 C 46.148438 -43.820312 49.316406 -40.972656 51.578125 -37.296875 C 53.835938 -33.617188 54.96875 -29.335938 54.96875 -24.453125 C 54.96875 -19.554688 53.835938 -15.269531 51.578125 -11.59375 C 49.316406 -7.914062 46.148438 -5.0625 42.078125 -3.03125 C 38.003906 -1.007812 33.3125 0 28 0 L 5.796875 0 Z M 27.453125 -9.296875 C 32.335938 -9.296875 36.234375 -10.65625 39.140625 -13.375 C 42.054688 -16.101562 43.515625 -19.796875 43.515625 -24.453125 C 43.515625 -29.109375 42.054688 -32.796875 39.140625 -35.515625 C 36.234375 -38.234375 32.335938 -39.59375 27.453125 -39.59375 L 17.109375 -39.59375 L 17.109375 -9.296875 Z M 27.453125 -9.296875 "/></g></g></g><g fill="currentColor" fill-opacity="1"><g transform="translate(290.165928, 44.934704)"><g><path d="M 7.5625 0.234375 C 6.226562 0.234375 4.921875 0.0703125 3.640625 -0.25 C 2.367188 -0.582031 1.351562 -1 0.59375 -1.5 L 2.15625 -4.84375 C 2.875 -4.382812 3.738281 -4.007812 4.75 -3.71875 C 5.769531 -3.4375 6.769531 -3.296875 7.75 -3.296875 C 9.726562 -3.296875 10.71875 -3.78125 10.71875 -4.75 C 10.71875 -5.21875 10.445312 -5.550781 9.90625 -5.75 C 9.363281 -5.945312 8.535156 -6.113281 7.421875 -6.25 C 6.109375 -6.445312 5.019531 -6.675781 4.15625 -6.9375 C 3.300781 -7.195312 2.554688 -7.65625 1.921875 -8.3125 C 1.296875 -8.976562 0.984375 -9.914062 0.984375 -11.125 C 0.984375 -12.144531 1.273438 -13.046875 1.859375 -13.828125 C 2.453125 -14.617188 3.3125 -15.234375 4.4375 -15.671875 C 5.570312 -16.117188 6.90625 -16.34375 8.4375 -16.34375 C 9.570312 -16.34375 10.703125 -16.21875 11.828125 -15.96875 C 12.960938 -15.71875 13.894531 -15.375 14.625 -14.9375 L 13.078125 -11.609375 C 11.660156 -12.410156 10.113281 -12.8125 8.4375 -12.8125 C 7.4375 -12.8125 6.6875 -12.671875 6.1875 -12.390625 C 5.695312 -12.109375 5.453125 -11.75 5.453125 -11.3125 C 5.453125 -10.8125 5.71875 -10.460938 6.25 -10.265625 C 6.789062 -10.066406 7.648438 -9.875 8.828125 -9.6875 C 10.140625 -9.46875 11.210938 -9.234375 12.046875 -8.984375 C 12.890625 -8.742188 13.617188 -8.289062 14.234375 -7.625 C 14.859375 -6.96875 15.171875 -6.050781 15.171875 -4.875 C 15.171875 -3.875 14.867188 -2.984375 14.265625 -2.203125 C 13.671875 -1.429688 12.800781 -0.832031 11.65625 -0.40625 C 10.507812 0.0195312 9.144531 0.234375 7.5625 0.234375 Z M 7.5625 0.234375 "/></g></g></g></svg>