<svg width="433" height="77" viewBox="0 0 433 77" fill="none" xmlns="http://www.w3.org/2000/svg">
<path d="M358.917 16.0933C358.917 16.1659 358.876 16.7154 358.794 17.7521H342.772C343.06 19.0792 343.738 20.1315 344.808 20.9039C345.888 21.6659 347.235 22.0443 348.839 22.0443C349.934 22.0443 350.906 21.8784 351.76 21.5467C352.624 21.2149 353.415 20.6913 354.146 19.9708L357.416 23.558C355.426 25.8544 352.51 27 348.675 27C346.289 27 344.175 26.5335 342.34 25.59C340.499 24.6517 339.08 23.3506 338.082 21.6918C337.08 20.0226 336.581 18.1254 336.581 16.0104C336.581 13.9265 337.074 12.0396 338.062 10.3497C339.049 8.66494 340.396 7.35344 342.114 6.40999C343.841 5.47173 345.764 5 347.893 5C349.96 5 351.832 5.45617 353.508 6.36852C355.195 7.2705 356.516 8.56126 357.478 10.246C358.434 11.9204 358.917 13.8695 358.917 16.0933ZM347.934 9.68615C346.536 9.68615 345.363 10.0905 344.417 10.8888C343.471 11.6767 342.895 12.7653 342.689 14.1442H353.138C352.917 12.7912 352.336 11.713 351.39 10.9095C350.443 10.0957 349.292 9.68615 347.934 9.68615Z" fill="currentColor"/>
<path d="M427.581 25.6214C426.906 26.088 426.083 26.4379 425.111 26.6606C424.133 26.8833 423.104 27 422.023 27C419.215 27 417.043 26.3425 415.505 25.0275C413.978 23.7019 413.217 21.7506 413.217 19.1736V10.2019H409.581V5.32364H413.217V0H420.056V5.32364H425.934V10.2019H420.056V19.0888C420.056 20.0114 420.308 20.7219 420.811 21.231C421.325 21.7294 422.052 21.9733 422.984 21.9733C424.064 21.9733 424.985 21.7082 425.751 21.1673L427.581 25.6214Z" fill="currentColor"/>
<mask id="mask0_1_73" style="mask-type:luminance" maskUnits="userSpaceOnUse" x="333" y="49" width="29" height="28">
<path d="M333.275 49H361.275V77H333.275V49Z" fill="white"/>
</mask>
<g mask="url(#mask0_1_73)">
<mask id="mask1_1_73" style="mask-type:luminance" maskUnits="userSpaceOnUse" x="333" y="48" width="30" height="30">
<path d="M362.423 48H333.581V77.4539H362.423V48Z" fill="white"/>
</mask>
<g mask="url(#mask1_1_73)">
<mask id="mask2_1_73" style="mask-type:luminance" maskUnits="userSpaceOnUse" x="334" y="48" width="29" height="29">
<path d="M334.423 48.7322H362.423V76.7322H334.423V48.7322Z" fill="white"/>
</mask>
<g mask="url(#mask2_1_73)">
<path d="M334.423 48.7322H362.423V76.774H334.423V48.7322Z" fill="var(--cell-background-color-correct)"/>
</g>
</g>
</g>
<mask id="mask3_1_73" style="mask-type:luminance" maskUnits="userSpaceOnUse" x="368" y="49" width="29" height="28">
<path d="M368.581 49H396.581V77H368.581V49Z" fill="white"/>
</mask>
<g mask="url(#mask3_1_73)">
<mask id="mask4_1_73" style="mask-type:luminance" maskUnits="userSpaceOnUse" x="367" y="48" width="31" height="30">
<path d="M397.788 48.2678H367.572V77.7217H397.788V48.2678Z" fill="white"/>
</mask>
<g mask="url(#mask4_1_73)">
<mask id="mask5_1_73" style="mask-type:luminance" maskUnits="userSpaceOnUse" x="368" y="49" width="29" height="28">
<path d="M368.581 49H396.581V77H368.581V49Z" fill="white"/>
</mask>
<g mask="url(#mask5_1_73)">
<path d="M368.581 49H396.581V77.0418H368.581V49Z" fill="var(--cell-background-color-present)"/>
</g>
</g>
</g>
<mask id="mask6_1_73" style="mask-type:luminance" maskUnits="userSpaceOnUse" x="404" y="49" width="29" height="28">
<path d="M404.357 49H432.357V77H404.357V49Z" fill="white"/>
</mask>
<g mask="url(#mask6_1_73)">
<mask id="mask7_1_73" style="mask-type:luminance" maskUnits="userSpaceOnUse" x="403" y="48" width="31" height="30">
<path d="M433.398 48.2678H403.182V77.7217H433.398V48.2678Z" fill="white"/>
</mask>
<g mask="url(#mask7_1_73)">
<mask id="mask8_1_73" style="mask-type:luminance" maskUnits="userSpaceOnUse" x="404" y="49" width="29" height="28">
<path d="M404.357 49H432.357V77H404.357V49Z" fill="white"/>
</mask>
<g mask="url(#mask8_1_73)">
<path d="M404.357 49H432.357V77.0418H404.357V49Z" fill="var(--cell-background-color-absent)"/>
</g>
</g>
</g>
<path d="M103.661 6.5759L82.4603 76.5759H66.3371L52.0584 29.171L37.3444 76.5759H21.3041L0 6.5759H15.5636L30.2154 55.7705L45.4889 6.5759H59.3946L74.2122 56.1732L89.2992 6.5759H103.661Z" fill="currentColor"/>
<path d="M143.034 75.4509C136.48 75.4509 130.571 73.9372 125.313 70.9097C120.05 67.8714 115.928 63.6977 112.941 58.3888C109.964 53.0691 108.48 47.0898 108.48 40.4401C108.48 33.812 109.964 27.8435 112.941 22.5346C115.928 17.2149 120.05 13.0413 125.313 10.0138C130.571 6.97546 136.48 5.4509 143.034 5.4509C149.599 5.4509 155.492 6.97546 160.714 10.0138C165.947 13.0413 170.064 17.2149 173.067 22.5346C176.079 27.8435 177.588 33.812 177.588 40.4401C177.588 47.0898 176.079 53.0691 173.067 58.3888C170.064 63.6977 165.947 67.8714 160.714 70.9097C155.492 73.9372 149.599 75.4509 143.034 75.4509ZM143.034 62.1083C146.758 62.1083 150.123 61.1946 153.126 59.3619C156.138 57.5184 158.499 54.9504 160.21 51.6634C161.931 48.3764 162.793 44.6353 162.793 40.4401C162.793 36.2611 161.931 32.5253 160.21 29.2384C158.499 25.9514 156.138 23.3942 153.126 21.5615C150.123 19.718 146.758 18.7935 143.034 18.7935C139.305 18.7935 135.935 19.718 132.922 21.5615C129.92 23.3942 127.559 25.9514 125.838 29.2384C124.127 32.5253 123.275 36.2611 123.275 40.4401C123.275 44.6353 124.127 48.3764 125.838 51.6634C127.559 54.9504 129.92 57.5184 132.922 59.3619C135.935 61.1946 139.305 62.1083 143.034 62.1083Z" fill="currentColor"/>
<path d="M231.327 76.5759L218.846 57.0681H205.084V76.5759H190.123V6.5759H218.102C223.831 6.5759 228.806 7.61617 233.022 9.68552C237.248 11.7437 240.502 14.6743 242.775 18.4775C245.048 22.2806 246.185 26.7772 246.185 31.9674C246.185 37.1743 245.028 41.6654 242.713 45.435C240.409 49.1933 237.139 52.0737 232.898 54.0703L247.383 76.5759H231.327ZM231.038 31.9674C231.038 28.0468 229.865 25.0323 227.525 22.9294C225.195 20.8265 221.78 19.775 217.276 19.775H205.084V44.1822H217.276C221.78 44.1822 225.195 43.1195 227.525 40.9831C229.865 38.8522 231.038 35.8488 231.038 31.9674Z" fill="currentColor"/>
<path d="M257.693 6.5759H287.115C294.155 6.5759 300.371 8.03004 305.77 10.9383C311.164 13.8354 315.362 17.9126 318.359 23.1754C321.35 28.4439 322.852 34.5737 322.852 41.5647C322.852 48.5781 321.35 54.7135 318.359 59.9763C315.362 65.2448 311.164 69.3276 305.77 72.2359C300.371 75.1329 294.155 76.5759 287.115 76.5759H257.693V6.5759ZM286.39 63.2649C292.861 63.2649 298.026 61.3186 301.877 57.426C305.739 53.5222 307.675 48.2314 307.675 41.5647C307.675 34.898 305.739 29.6184 301.877 25.7258C298.026 21.8332 292.861 19.8869 286.39 19.8869H272.684V63.2649H286.39Z" fill="currentColor"/>
<path d="M382.141 27C380.309 27 378.519 26.7823 376.761 26.3572C375.014 25.9166 373.62 25.3619 372.581 24.6984L374.724 20.2611C375.711 20.8728 376.895 21.3704 378.283 21.754C379.682 22.1272 381.053 22.3139 382.399 22.3139C385.11 22.3139 386.471 21.6711 386.471 20.3855C386.471 19.7634 386.096 19.3228 385.357 19.0584C384.612 18.7992 383.476 18.5763 381.948 18.3949C380.148 18.1357 378.653 17.8299 377.468 17.4826C376.295 17.1404 375.271 16.5287 374.403 15.6579C373.545 14.7766 373.117 13.5325 373.117 11.9255C373.117 10.5726 373.513 9.37512 374.317 8.33836C375.132 7.29123 376.311 6.4722 377.854 5.89161C379.408 5.30066 381.241 5 383.342 5C384.896 5 386.45 5.16588 387.993 5.49764C389.548 5.82941 390.828 6.28558 391.831 6.86616L389.708 11.2828C387.763 10.2201 385.641 9.68615 383.342 9.68615C381.97 9.68615 380.941 9.87276 380.255 10.246C379.58 10.6192 379.247 11.0961 379.247 11.6767C379.247 12.3402 379.612 12.8068 380.341 13.066C381.08 13.3303 382.259 13.5844 383.878 13.8332C385.678 14.1235 387.147 14.4345 388.294 14.7663C389.451 15.0877 390.448 15.689 391.295 16.5702C392.152 17.4411 392.581 18.6593 392.581 20.2196C392.581 21.5467 392.163 22.7286 391.338 23.7653C390.523 24.7917 389.328 25.5848 387.758 26.1499C386.182 26.7149 384.312 27 382.141 27Z" fill="currentColor"/>
</svg>
